<?xml version="1.0" encoding="utf-8" ?>
<svg xmlns="http://www.w3.org/2000/svg" xmlns:xlink="http://www.w3.org/1999/xlink" width="219" height="230">
	<path fill="#2C3F6A" d="M8.8594 153.752C9.42813 151.302 11.2576 148.804 13.4063 147.489C14.8472 146.608 16.6575 146.327 18.3149 146.149C23.1077 145.637 42.8411 145.616 47.0694 146.687C49.7511 147.366 51.6375 148.947 53.0122 151.296C54.0405 153.052 54.3129 155.099 54.513 157.095C55.3044 164.985 54.855 173.275 54.8552 181.204C54.8554 187.899 55.5389 202.412 53.9282 208.446C53.3397 210.651 51.6716 212.985 49.6756 214.093C48.3026 214.855 46.81 215.25 45.2597 215.447C40.4686 216.055 19.802 216.16 15.8217 214.958C13.2518 214.182 10.9825 212.665 9.68841 210.25C8.82794 208.644 8.55622 207.055 8.56019 205.243C8.07456 199.866 8.01197 156.83 8.8594 153.752Z"/>
	<path fill="#EF5875" d="M18.5325 154.345C27.62 154.09 37.0202 153.902 46.0809 154.561C46.4467 158.55 46.3194 162.645 46.3248 166.651L46.3254 185.619L46.3138 198.697C46.3085 201.328 46.4868 204.152 46.0693 206.752C45.4465 207.307 44.8609 207.298 44.0605 207.446C38.8745 207.597 33.676 207.538 28.4878 207.531C24.665 207.526 20.7292 207.693 16.9326 207.215C16.2977 196.332 16.74 185.2 16.7494 174.289C16.7539 169.091 16.2442 159.768 17.0724 155.102C17.5957 154.452 17.7422 154.507 18.5325 154.345Z"/>
	<path fill="#2C3F6A" d="M121.527 137.822C126.484 137.425 131.634 137.663 136.61 137.663C140.819 137.663 145.461 137.304 149.619 137.966C151.233 138.223 152.925 138.771 154.286 139.689C156.317 141.06 157.79 143.828 158.233 146.209C158.909 149.834 158.782 153.728 158.794 157.403L158.821 171.233L158.804 191.474C158.779 196.143 158.899 200.897 158.317 205.536C158.038 207.766 157.642 209.602 156.33 211.479C154.557 214.013 152.249 214.966 149.305 215.478C144.109 215.889 138.845 215.767 133.636 215.777C129.676 215.785 125.391 216.095 121.488 215.377C119.656 215.039 117.841 214.356 116.305 213.29C114.539 212.064 113.019 209.662 112.651 207.527C112.024 203.892 112.239 199.792 112.232 196.108L112.224 179.407L112.232 160.049C112.236 155.93 112.066 151.696 112.513 147.6C112.74 145.525 113.146 143.895 114.348 142.161C116.093 139.645 118.572 138.362 121.527 137.822Z"/>
	<path fill="#F0B542" d="M127.225 145.862C132.71 145.861 145.236 145.28 149.962 146.311C150.529 150.051 150.25 154.115 150.252 157.896L150.253 177.32L150.243 195.789C150.24 199.398 150.538 203.348 149.934 206.906C148.84 207.869 145.981 207.514 144.52 207.519L130.748 207.546C127.578 207.549 124.172 207.775 121.057 207.151Q121 206.773 120.957 206.394C120.495 202.385 120.71 198.168 120.712 194.133L120.706 174.508L120.705 157.229C120.707 153.929 120.479 150.423 120.931 147.157C120.953 146.998 120.95 146.73 121.061 146.607C121.904 145.668 125.929 145.895 127.225 145.862Z"/>
	<path fill="#2C3F6A" d="M69.7144 116.812C73.1487 116.248 77.4157 116.66 80.9178 116.664C85.9392 116.67 91.8564 116.216 96.7992 116.923C98.6234 117.184 100.741 117.776 102.252 118.865C104.384 120.402 105.902 123.123 106.27 125.689C106.928 130.28 106.7 135.204 106.736 139.837L106.871 162.36L106.874 187.581C106.864 193.912 107.049 200.423 106.214 206.709C105.957 208.641 105.424 210.33 104.219 211.892C102.476 214.15 100.03 215.084 97.3054 215.442C92.1738 215.954 86.9152 215.774 81.7588 215.787C78.1074 215.796 74.3055 216.016 70.6766 215.637C69.1304 215.475 67.6004 215.124 66.1773 214.49C63.677 213.375 61.8243 211.121 60.8982 208.562C59.6494 205.11 60.0834 137.927 60.4103 129.77C60.4881 127.829 60.4197 125.072 61.2584 123.318C61.6431 122.514 62.0249 121.711 62.5378 120.978C64.3136 118.439 66.7724 117.338 69.7144 116.812Z"/>
	<path fill="#BE92C2" d="M74.8059 124.868C80.1128 124.688 93.4918 124.377 98.0628 125.399C98.5859 129.043 98.2469 133.159 98.2461 136.853L98.243 159.227L98.2535 189.878C98.2536 195.53 98.6661 201.549 97.9229 207.147C96.2533 207.4 94.6279 207.477 92.9406 207.504C90.0252 207.512 70.4539 208.028 69.3996 206.943C68.7625 206.287 68.7721 203.143 68.7413 202.24C68.5646 197.047 68.7035 191.813 68.7153 186.616L68.7258 160.399L68.719 138.805C68.7175 134.318 68.5831 129.782 68.8621 125.303C70.8116 124.953 72.8301 124.948 74.8059 124.868Z"/>
	<path fill="#2C3F6A" d="M180.404 95.625L181.192 95.6027C186.635 95.4661 197.035 94.9966 202.012 95.982C203.64 96.3044 205.475 96.9549 206.674 98.1325C210.371 101.761 210.436 106.153 210.514 111C210.845 131.547 210.551 152.152 210.559 172.703L210.556 193.083C210.544 197.656 210.752 202.489 210.064 207.015C209.727 209.234 208.809 211.218 207.232 212.827C203.93 216.197 199.107 215.697 194.794 215.73C188.548 215.664 175.867 216.724 170.57 214.677C167.926 213.655 166.274 211.956 165.126 209.384C164.1 207.087 164.283 203.499 164.23 200.964C163.794 179.964 164.221 158.871 164.247 137.862L164.27 117.326C164.278 112.812 164.041 108.093 164.746 103.623C165.03 101.824 166.028 100.214 167.287 98.9162C170.775 95.3204 175.791 95.6706 180.404 95.625Z"/>
	<path fill="#3DC4F1" d="M172.863 207.16C172.28 200.004 172.699 192.516 172.7 185.331L172.703 144.083L172.683 118.974C172.671 114.585 172.076 108.704 173.054 104.477C173.257 104.317 173.394 104.227 173.653 104.175C176.488 103.613 200.467 103.424 201.9 104.379C202.374 111.442 202.231 118.533 202.233 125.609L202.238 156.016L202.232 186.093C202.229 193.094 202.371 200.11 201.89 207.098C199.726 207.958 175.913 207.742 172.863 207.16Z"/>
	<path fill="#2C3F6A" d="M184.717 14.5816C188.623 14.3214 192.366 14.6626 195.948 16.3325C200.57 18.4873 203.909 21.8742 205.664 26.6923C207.59 31.9807 207.399 37.6887 204.982 42.7838C202.753 47.4842 199.106 50.6003 194.212 52.3274C187.745 54.61 182.061 53.0459 176.117 50.1987C172.029 54.8933 167.234 58.7047 162.689 62.9033C159.21 66.1172 156.061 69.5856 152.378 72.5894C154.126 75.9612 155.275 80.115 155.011 83.9327Q154.98 84.4223 154.925 84.9099Q154.87 85.3974 154.791 85.8816Q154.712 86.3658 154.609 86.8455Q154.506 87.3252 154.38 87.7993Q154.253 88.2733 154.104 88.7406Q153.954 89.2078 153.782 89.6671Q153.609 90.1264 153.414 90.5767Q153.219 91.0269 153.002 91.467Q152.786 91.9071 152.547 92.3359Q152.309 92.7648 152.05 93.1813Q151.791 93.5979 151.511 94.0012Q151.232 94.4045 150.933 94.7935Q150.634 95.1825 150.316 95.5563Q149.998 95.93 149.662 96.2877Q149.327 96.6454 148.974 96.986Q148.62 97.3267 148.251 97.6495C144.345 101.013 139.232 102.396 134.138 101.99C128.799 101.564 123.625 99.2761 120.13 95.1397C116.896 91.3114 115.48 86.1987 115.934 81.2337C116.087 79.563 116.523 77.9383 116.658 76.2614C116.039 74.783 100.023 65.4786 97.5973 63.8983C94.6504 67.2993 89.6797 69.2444 85.2727 69.625C80.5887 70.0296 75.1759 68.8882 71.5114 65.8106C69.8057 68.4229 66.4919 70.6614 64.095 72.6976C59.1209 76.9233 53.8988 81.0386 49.1075 85.4562C49.8003 87.7927 50.4902 90.1421 50.814 92.5634C51.5041 97.7251 49.9965 103.42 46.8071 107.555C43.5403 111.79 38.4771 113.741 33.3124 114.388C29.0793 115.079 23.8215 113.342 20.2701 111.102C16.3487 108.63 13.5593 104.516 12.5447 100.003C11.3376 94.6341 12.0567 88.8161 15.0273 84.1403C17.7622 79.8357 22.0006 76.994 26.9687 75.8892C32.958 74.5572 38.4839 76.2103 43.5328 79.4419C45.7166 76.4565 49.3339 73.9299 52.129 71.5046C56.7241 67.5174 61.2515 63.1669 66.2754 59.7275C64.1716 55.6255 63.2411 50.3329 64.2824 45.7982C65.3683 41.0691 68.2205 36.4529 72.3865 33.8642Q72.8276 33.5937 73.2815 33.3449Q73.7353 33.0962 74.2007 32.87Q74.6661 32.6437 75.142 32.4404Q75.6179 32.2371 76.1031 32.0572Q76.5883 31.8774 77.0818 31.7214Q77.5752 31.5655 78.0757 31.4338Q78.5761 31.3021 79.0824 31.1949Q79.5887 31.0878 80.0996 31.0055Q80.6105 30.9232 81.1248 30.8659Q81.6391 30.8086 82.1556 30.7765Q82.6721 30.7444 83.1896 30.7375Q83.707 30.7306 84.2242 30.7489Q84.7414 30.7673 85.257 30.8109Q85.7727 30.8544 86.2856 30.9231Q86.7985 30.9918 87.3075 31.0854Q87.8164 31.179 88.3202 31.2973C92.8666 32.3609 97.4172 35.1618 99.8887 39.1878C103.519 45.1014 103.58 50.5514 101.999 57.0661C105.827 58.6851 112.675 63.6089 116.535 66.0916C118.111 67.1047 119.675 68.2449 121.406 68.9682C123.828 66.6126 126.974 64.5785 130.261 63.7099C135.961 62.2037 141.602 63.5714 146.593 66.4608C148.623 63.6392 151.979 61.2354 154.53 58.8551C159.865 53.8772 164.882 48.8404 170.524 44.1822C169.33 41.9087 168.422 39.3534 168.008 36.8162C167.214 31.9529 168.511 26.4541 171.395 22.4554C174.588 18.029 179.426 15.4564 184.717 14.5816Z"/>
	<path fill="#3DC4F1" d="M186.283 22.5615C188.944 22.3231 191.481 22.8015 193.708 24.3155C196.222 26.0245 198.098 28.8782 198.641 31.8705C199.17 34.7866 198.652 37.9945 196.939 40.4458C194.965 43.272 192.09 44.7365 188.765 45.3277C185.862 45.5146 183.126 44.9011 180.734 43.1992Q180.275 42.8751 179.851 42.5067Q179.427 42.1384 179.042 41.7295Q178.656 41.3207 178.314 40.8754Q177.971 40.4302 177.675 39.9529Q177.379 39.4757 177.132 38.9712Q176.884 38.4667 176.689 37.9401Q176.493 37.4135 176.351 36.87Q176.209 36.3265 176.122 35.7715Q176.03 35.2225 175.993 34.6671Q175.957 34.1117 175.975 33.5553Q175.994 32.999 176.068 32.4473Q176.141 31.8956 176.27 31.3539Q176.398 30.8123 176.579 30.286Q176.761 29.7598 176.994 29.2542Q177.227 28.7487 177.509 28.2687Q177.791 27.7888 178.119 27.3393C180.137 24.5356 182.937 23.1226 186.283 22.5615Z"/>
	<path fill="#BE92C2" d="M82.0179 38.7872C84.485 38.6362 86.6619 38.8264 88.8571 40.0438Q89.3758 40.3362 89.8635 40.6779Q90.3512 41.0197 90.8031 41.4074Q91.2551 41.7952 91.667 42.2252Q92.0788 42.6553 92.4467 43.1235Q92.8146 43.5918 93.1349 44.0938Q93.4553 44.5957 93.7251 45.1266Q93.9948 45.6575 94.2114 46.2122Q94.428 46.7669 94.5893 47.3401C95.3665 50.1418 94.9306 53.3347 93.4968 55.857C91.7197 58.9834 88.8375 60.6022 85.4708 61.5323C82.7013 61.9331 79.8861 61.4421 77.4899 59.9723C74.8269 58.3388 73.0498 55.7634 72.339 52.7334C71.6514 49.8027 72.1076 46.8675 73.7208 44.3184C75.6702 41.2381 78.5346 39.5881 82.0179 38.7872Z"/>
	<path fill="#EF5875" d="M30.2661 83.5272C32.7292 83.3762 34.927 83.8056 37.093 85.0148C39.8525 86.5554 41.7624 89.0065 42.5984 92.0525C43.4079 95.0021 43.0689 98.0347 41.5399 100.696C39.6387 104.006 36.6283 105.514 33.0576 106.463C30.4067 106.601 27.9688 106.199 25.6494 104.847C23.0761 103.348 21.2762 100.875 20.5315 97.9994C19.7707 95.0619 20.1531 91.7425 21.7251 89.1284C23.6553 85.9187 26.7486 84.3932 30.2661 83.5272Z"/>
	<path fill="#F0B542" d="M133.833 71.2877C136.34 71.0866 138.601 71.2891 140.857 72.4781Q141.351 72.7369 141.817 73.0433Q142.283 73.3497 142.716 73.7008Q143.149 74.0518 143.545 74.4441Q143.941 74.8363 144.297 75.2659Q144.652 75.6954 144.964 76.1581Q145.275 76.6208 145.539 77.112Q145.802 77.6032 146.016 78.1181Q146.23 78.633 146.392 79.1666C147.279 82.0338 147.045 85.3245 145.624 87.9821C143.888 91.2282 140.91 93.0397 137.484 94.0773C134.656 94.4928 131.625 93.7705 129.225 92.239Q128.755 91.9395 128.318 91.5948Q127.88 91.2501 127.479 90.8637Q127.077 90.4772 126.716 90.0528Q126.356 89.6284 126.039 89.1703Q125.722 88.7122 125.452 88.2248Q125.182 87.7375 124.962 87.2258Q124.741 86.714 124.573 86.1829Q124.405 85.6519 124.29 85.1067C123.651 82.0912 124.176 78.9786 125.877 76.3978C127.739 73.5716 130.577 71.9744 133.833 71.2877Z"/>
</svg>
